<?xml version="1.0" encoding="UTF-8" standalone="no"?>
<!-- Created with Inkscape (http://www.inkscape.org/) -->

<svg
   width="823.245"
   height="262.39899"
   viewBox="0 0 217.8169 69.426398"
   version="1.1"
   id="svg1"
   inkscape:version="1.3.2 (1:1.3.2+202311252150+091e20ef0f)"
   sodipodi:docname="jvadair-text.svg"
   xmlns:inkscape="http://www.inkscape.org/namespaces/inkscape"
   xmlns:sodipodi="http://sodipodi.sourceforge.net/DTD/sodipodi-0.dtd"
   xmlns="http://www.w3.org/2000/svg"
   xmlns:svg="http://www.w3.org/2000/svg">
  <sodipodi:namedview
     id="namedview1"
     pagecolor="#ffffff"
     bordercolor="#999999"
     borderopacity="1"
     inkscape:showpageshadow="0"
     inkscape:pageopacity="0"
     inkscape:pagecheckerboard="0"
     inkscape:deskcolor="#d1d1d1"
     inkscape:document-units="mm"
     inkscape:zoom="0.47660634"
     inkscape:cx="396.55368"
     inkscape:cy="561.25984"
     inkscape:window-width="1366"
     inkscape:window-height="732"
     inkscape:window-x="0"
     inkscape:window-y="526"
     inkscape:window-maximized="1"
     inkscape:current-layer="text1" />
  <defs
     id="defs1" />
  <g
     inkscape:label="Layer 1"
     inkscape:groupmode="layer"
     id="layer1">
    <g
       id="text1"
       style="font-size:64.8951px;line-height:1.25;letter-spacing:0px;word-spacing:0px;stroke-width:1.62238"
       aria-label="jvadair">
      <path
         style="font-weight:bold;font-family:'Comic Sans MS';-inkscape-font-specification:'Comic Sans MS, Bold';fill:#a0ced9"
         d="m 16.635754,12.57981 q -2.027972,0 -3.517264,-1.362543 -1.457605,-1.3625439 -1.457605,-3.3588288 0,-1.9962849 1.457605,-3.3588286 1.489292,-1.3942308 3.517264,-1.3942308 2.027972,0 3.517264,1.3942308 1.489292,1.3625437 1.489292,3.3588286 0,1.9962849 -1.489292,3.3588288 -1.489292,1.362543 -3.517264,1.362543 z m -1.520979,43.854895 q 0,-3.327142 -1.07736,-17.554633 -1.077361,-14.227491 -1.077361,-16.889204 0,-1.901224 1.109048,-3.422203 1.299169,-1.711101 3.358828,-1.711101 1.457605,0 2.91521,0.982299 1.584353,1.07736 1.647727,2.471591 0.380245,6.052229 1.045673,17.586319 0.855551,15.368225 0.855551,18.853802 0,4.594624 -2.883523,8.428759 Q 17.808175,69.4264 13.055116,69.4264 5.3868466,69.4264 0.47535196,58.589425 4.6022236e-5,57.543752 4.6022236e-5,56.624827 q 0,-1.742788 1.394230777764,-3.010271 1.3625436,-1.172421 3.1370191,-1.172421 2.027972,0 3.5806381,2.186407 1.1407342,2.027972 2.313155,4.087631 1.267483,2.186407 2.630027,2.186407 1.647727,0 2.059659,-4.467875 z"
         id="path1" />
      <path
         style="font-weight:bold;font-family:'Comic Sans MS';-inkscape-font-specification:'Comic Sans MS, Bold';fill:#adf7b6"
         d="m 48.259442,48.164381 q -0.158435,1.584353 -1.29917,2.598339 -1.140734,1.013986 -2.820148,1.013986 -3.200394,0 -4.53125,-3.295454 -3.422203,-8.555507 -10.488418,-25.539772 -0.411932,-0.950612 -0.411932,-1.806163 0,-1.711101 1.362544,-2.883522 1.394231,-1.204109 3.168706,-1.204109 2.725088,0 3.897509,2.503278 1.806163,3.834135 7.034528,17.934877 1.679414,-3.580638 4.626311,-10.900349 0.887238,-2.439904 2.756774,-6.812718 1.29917,-2.534965 3.929196,-2.534965 1.774475,0 3.137019,1.172421 1.394231,1.172421 1.394231,2.91521 0,1.140734 -5.133304,12.548076 -4.182692,9.315997 -6.622596,14.290865 z"
         id="path2" />
      <path
         style="font-weight:bold;font-family:'Comic Sans MS';-inkscape-font-specification:'Comic Sans MS, Bold';fill:#ffee93"
         d="m 90.149736,52.60057 q -1.457604,0 -4.626311,-3.168706 -2.915209,1.394231 -5.133304,2.091346 -2.218094,0.728802 -3.77076,0.728802 -7.636582,0 -11.470717,-4.087631 -3.802447,-4.087631 -3.802447,-12.231206 0,-7.636582 5.640297,-13.055069 5.640297,-5.450175 13.498688,-5.450175 3.010271,0 6.971154,1.711101 4.784746,2.059659 4.784746,4.784747 0,1.140734 -0.728802,1.996285 -0.316871,1.267482 -0.506993,3.200393 -0.158435,1.901224 -0.158435,4.467876 0,6.052229 0.85555,8.713942 0.09506,0.285183 1.457605,3.295454 1.235796,2.725088 1.235796,3.105332 0,1.679415 -1.29917,2.788462 -1.267482,1.109047 -2.946897,1.109047 z M 82.291345,30.863245 q 0,-1.013986 0.126748,-2.313155 0.158435,-1.330857 0.443619,-2.946897 -0.633741,-0.316871 -1.140734,-0.443619 -0.475306,-0.158435 -0.823864,-0.158435 -4.30944,0 -7.541521,3.390515 -3.23208,3.358829 -3.23208,7.795018 0,4.246066 1.520979,6.400786 1.520979,2.123034 4.562937,2.123034 1.964598,0 3.707386,-0.633742 1.774476,-0.665428 3.327142,-1.93291 -0.950612,-7.541521 -0.950612,-11.280595 z"
         id="path3" />
      <path
         style="font-weight:bold;font-family:'Comic Sans MS';-inkscape-font-specification:'Comic Sans MS, Bold';fill:#ffc09f"
         d="m 122.05861,18.663726 q 0.41193,-10.8052878 0.9823,-14.9246059 0.53868,-3.739073362508 4.11931,-3.739073362508 1.86954,0 3.01027,1.204108362508 1.14074,1.2041084 1.14074,2.9468968 0,4.594624 -0.7288,13.6888111 -0.69712,9.094187 -0.69712,13.688811 0,11.21722 0.7288,15.019667 0.0951,0.506993 0.0951,0.918925 0,1.742788 -1.26748,2.883523 -1.26748,1.109047 -2.94689,1.109047 -2.34485,0 -3.48558,-2.091346 -2.15472,1.299169 -4.46788,1.93291 -2.31315,0.665429 -4.78474,0.665429 -7.09791,0 -11.78759,-4.53125 -4.784747,-4.626311 -4.784747,-11.787587 0,-8.52382 4.816437,-13.752185 4.81643,-5.260053 12.57976,-5.260053 2.37653,0 4.24607,0.506993 1.86953,0.506993 3.23208,1.520979 z m -0.63374,9.981425 q -1.04568,-1.996285 -2.72509,-2.978584 -1.67942,-0.982299 -3.99257,-0.982299 -4.68969,0 -7.03453,2.725088 -2.34484,2.6934 -2.34484,8.111888 0,3.422202 2.53496,5.862106 2.53497,2.439904 5.8938,2.439904 2.4399,0 3.70738,-0.570367 0.85555,-0.380245 2.91521,-2.027972 0.53868,-0.443619 1.04568,-0.982299 -0.0634,-1.520979 0,-11.597465 z"
         id="path4" />
      <path
         style="font-weight:bold;font-family:'Comic Sans MS';-inkscape-font-specification:'Comic Sans MS, Bold';fill:#a0ced9"
         d="m 164.32915,52.60057 q -1.45761,0 -4.62631,-3.168706 -2.91521,1.394231 -5.13331,2.091346 -2.21809,0.728802 -3.77076,0.728802 -7.63658,0 -11.47071,-4.087631 -3.80245,-4.087631 -3.80245,-12.231206 0,-7.636582 5.6403,-13.055069 5.64029,-5.450175 13.49869,-5.450175 3.01027,0 6.97115,1.711101 4.78475,2.059659 4.78475,4.784747 0,1.140734 -0.72881,1.996285 -0.31687,1.267482 -0.50699,3.200393 -0.15844,1.901224 -0.15844,4.467876 0,6.052229 0.85556,8.713942 0.0951,0.285183 1.4576,3.295454 1.2358,2.725088 1.2358,3.105332 0,1.679415 -1.29917,2.788462 -1.26749,1.109047 -2.9469,1.109047 z m -7.85839,-21.737325 q 0,-1.013986 0.12675,-2.313155 0.15843,-1.330857 0.44361,-2.946897 -0.63374,-0.316871 -1.14073,-0.443619 -0.47531,-0.158435 -0.82386,-0.158435 -4.30944,0 -7.54152,3.390515 -3.23208,3.358829 -3.23208,7.795018 0,4.246066 1.52097,6.400786 1.52098,2.123034 4.56294,2.123034 1.9646,0 3.70739,-0.633742 1.77447,-0.665428 3.32714,-1.93291 -0.95061,-7.541521 -0.95061,-11.280595 z"
         id="path5" />
      <path
         style="font-weight:bold;font-family:'Comic Sans MS';-inkscape-font-specification:'Comic Sans MS, Bold';fill:#adf7b6"
         d="m 180.26774,12.421375 q -2.02797,0 -3.51726,-1.362544 -1.4893,-1.3625432 -1.4893,-3.3271411 0,-1.9645978 1.4893,-3.3271415 1.48929,-1.3625437 3.51726,-1.3625437 2.02797,0 3.48558,1.3625437 1.48929,1.3625437 1.48929,3.3271415 0,1.9645979 -1.48929,3.3271411 -1.45761,1.362544 -3.48558,1.362544 z m 2.6934,23.226617 q 0,1.806162 0.0951,5.798732 0.12675,3.99257 0.12675,5.798733 0,1.837849 -1.2358,3.041958 -1.23579,1.172421 -3.13701,1.172421 -1.90123,0 -3.13702,-1.172421 -1.2358,-1.204109 -1.2358,-3.041958 0,-1.806163 -0.12675,-5.798733 -0.0951,-3.99257 -0.0951,-5.798732 0,-2.820149 0.31687,-7.066215 0.31687,-4.246066 0.31687,-7.066215 0,-1.83785 1.2358,-3.010271 1.23579,-1.204108 3.13702,-1.204108 1.90122,0 3.13702,1.204108 1.23579,1.172421 1.23579,3.010271 0,2.820149 -0.31687,7.066215 -0.31687,4.246066 -0.31687,7.066215 z"
         id="path6" />
      <path
         style="font-weight:bold;font-family:'Comic Sans MS';-inkscape-font-specification:'Comic Sans MS, Bold';fill:#ffee93"
         d="m 217.78522,27.662852 q -0.28519,4.848121 -4.4045,4.848121 -3.99257,0 -3.99257,-4.119319 l -0.15844,-3.200393 q -7.12959,1.140734 -10.20323,7.319712 l 0.0317,15.938592 q 0,1.806162 -1.23579,2.978584 -1.2358,1.204108 -3.13702,1.204108 -1.9646,0 -3.04196,-1.267482 -1.01398,-1.140735 -1.01398,-2.91521 V 27.694539 q 0,-0.982299 0.0634,-2.91521 0.0634,-1.964597 0.0634,-2.946896 0,-1.774476 1.04568,-2.946897 1.07736,-1.204109 3.04195,-1.204109 3.51727,0 4.1827,3.612326 5.60861,-4.182693 12.45301,-4.182693 6.33741,0 6.33741,8.428759 0,1.61604 -0.0317,2.123033 z"
         id="path7" />
    </g>
  </g>
</svg>
